<?xml version="1.0" encoding="UTF-8"?>
<svg width="300px" height="65px" viewBox="0 0 500 112" version="1.1" xmlns="http://www.w3.org/2000/svg" xmlns:xlink="http://www.w3.org/1999/xlink">
    <!-- Generator: Sketch 61.2 (89653) - https://sketch.com -->
    <title>Persistent Logo/SVG (Screen)/Logo Horizontal/Persistent_Logo_Horizontal_Graphite</title>
    <desc>Created with Sketch.</desc>
    <g id="Logo-Horizontal/Persistent_Logo_Horizontal_Graphite" stroke="none" stroke-width="1" fill="none" fill-rule="evenodd">
        <g id="Logo-Horizontal/Persistent_Logo_Horizontal_Default" fill="#4D4D4D">
            <g id="Logo-Elements/Persistent_Logo_Infinity">
                <path d="M105.064688,18.5939305 C103.878961,14.9835323 101.977245,11.6208094 99.471513,8.83929784 C96.9753399,6.05165339 93.9274963,3.8112534 90.5792379,2.29453704 C83.8772591,-0.775221374 76.0118561,-0.750217962 69.3808843,2.28179946 C62.7321609,5.27984998 57.4803657,11.2066019 55.0943447,18.2127464 C54.4980671,19.9629852 54.0779417,21.7759684 53.8421616,23.6115962 C53.5899954,25.429297 53.5913609,27.3569185 53.6209472,29.0576222 L53.714713,39.5486761 L53.8726583,60.5317274 L53.9290998,71.0227813 C53.9359274,72.7716048 53.9168101,74.5199565 53.9436654,76.2683082 C53.953224,77.1363512 53.9828103,78.0317564 53.9773483,78.8766829 C53.9882724,79.7211378 53.9300102,80.560875 53.9136239,81.4072169 C53.8066581,83.0914089 53.6214024,84.7840926 53.269553,86.4555471 C52.9286279,88.1298321 52.3810538,89.7644891 51.6819069,91.3283817 C50.2767854,94.4523928 48.2913173,97.3433532 45.7878615,99.6880127 C40.7672946,104.346667 33.8941705,106.886636 27.1525915,106.295046 C23.7865814,106.064354 20.4674541,105.097241 17.4824245,103.471076 C14.4910223,101.8501 11.8582972,99.5474275 9.76267705,96.8140357 C8.70986008,95.4506422 7.78312626,93.9848762 6.99112387,92.4455152 C6.19866631,90.9080413 5.52956084,89.2969725 5.06573876,87.6231592 C4.06253573,84.2972338 3.83130745,80.7528823 4.28784676,77.3788371 C4.53819234,75.6885121 4.9278211,74.0213036 5.44762956,72.4149523 C5.98928637,70.8142623 6.65930218,69.2772601 7.44220109,67.8341387 C8.21372066,66.3848844 9.12725445,65.0455507 10.121354,63.8170813 C11.0990673,62.5768177 12.1887533,61.4549665 13.3904121,60.5010628 C18.0882608,56.5576003 24.3200451,54.862086 30.6892919,54.8384979 C37.2815738,54.8484049 43.8734006,54.9488903 50.467048,54.909734 L50.4165237,47.743662 C43.8529177,47.8889649 37.2861255,48.3446874 30.7234299,48.8414533 C27.0638327,49.1212084 23.4483873,50.0331253 20.0514253,51.4965325 C18.3504409,52.216442 16.7354843,53.1387377 15.2033693,54.153027 C13.6785371,55.1819409 12.229719,56.3212473 10.9402116,57.6251988 C9.62658009,58.9013163 8.47453524,60.3368895 7.44811835,61.8451141 C6.41714973,63.3519235 5.5163608,64.9488394 4.7871724,66.624068 C3.26461608,69.9499934 2.28917866,73.5103848 1.89454299,77.2038132 C1.53040396,80.9316803 1.76117707,84.7524846 2.60871066,88.4595941 C3.47080981,92.1657601 5.00019373,95.7516266 7.16181404,98.9968807 C9.32889643,102.228925 12.1473325,105.132152 15.5174392,107.343774 C18.8820839,109.551151 22.7833784,111.035315 26.7743421,111.637284 C27.2741229,111.730693 27.7725382,111.778813 28.2732294,111.833066 C28.772555,111.888734 29.2737014,111.942986 29.7998823,111.959026 C30.3215114,111.988276 30.8431406,112.00809 31.3638594,111.996767 C31.8863989,112 32.4084832,111.985917 32.9282917,111.947232 C35.0148083,111.832122 37.0881249,111.466978 39.0999931,110.877747 C41.1132267,110.29512 43.0736602,109.504918 44.9480659,108.526011 C46.8247474,107.547576 48.5867251,106.337505 50.244468,104.984018 C53.526271,102.227982 56.2263619,98.7223149 58.2291266,94.8288592 C58.4872101,94.3457745 58.7220798,93.8504239 58.9437494,93.3484686 C59.1740674,92.8498157 59.3820818,92.3421992 59.5755307,91.8275064 C59.9879181,90.8099147 60.3220157,89.7583562 60.5987613,88.6954753 C61.1695493,86.5725442 61.52504,84.4038521 61.7630959,82.2394059 C61.8468478,81.1543522 61.954724,80.0721291 61.9852207,78.9889624 L62.0380208,77.5802797 L62.104021,76.2683082 L62.347539,71.0227813 L62.5783121,60.5317274 L63.0216514,39.5486761 L63.2351279,29.0576222 L63.2565211,27.7461225 L63.2633487,27.4324005 L63.2760935,27.2130309 L63.2979419,26.77382 C63.3352661,26.1902499 63.4017215,25.6118691 63.4932114,25.0405647 C63.6848396,23.8998431 63.9474749,22.7770484 64.340745,21.6990711 C65.1209129,19.5412296 66.3466959,17.5654883 67.8551418,15.8586517 C69.3790637,14.1621938 71.2411796,12.7884215 73.2867306,11.8642388 C75.335923,10.942415 77.5599021,10.4748983 79.8321296,10.4706525 C82.1016261,10.4324397 84.3497295,10.8777835 86.4439841,11.7873415 C88.536418,12.6945408 90.4709065,14.064539 92.067201,15.7930767 C93.651661,17.5305779 94.9343407,19.5822729 95.7531983,21.8391846 C96.5770629,24.088548 96.9471192,26.5516199 96.8283188,29.02224 C96.7195323,31.4796507 96.129627,33.9148886 95.0622445,36.1557604 C93.9889447,38.3853098 92.4741264,40.4412507 90.5751413,42.051376 C88.6825287,43.6638601 86.4671979,44.8762897 84.0939218,45.5631759 C82.9100148,45.9174695 81.687418,46.1580683 80.4402418,46.2613843 L79.9714128,46.2911054 C79.8007227,46.3000688 79.6937568,46.3170523 79.4570664,46.3198829 L78.1916833,46.355265 L75.6609171,46.4250859 L66.2347231,46.6859705 L66.0608468,54.9248304 L75.6609171,55.0559804 L78.1916833,55.090419 L79.4570664,55.1078742 L80.8121188,55.0951366 C82.6396416,55.0375816 84.4657988,54.7833016 86.2509904,54.341732 C89.8286563,53.4769914 93.2356321,51.8069522 96.1614892,49.4769173 C99.1010015,47.1596201 101.50705,44.1460014 103.272669,40.792242 C106.813466,34.0540585 107.458903,25.8208599 105.064688,18.5939305" id="Swoosh"></path>
            </g>
        </g>
    </g>
</svg>